<svg xmlns="http://www.w3.org/2000/svg" width="33" height="33" viewBox="0 0 33 33" fill="none">
  <path d="M25.025 7.975H25.0405M8.75 1H24.25C28.5302 1 32 4.46979 32 8.75V24.25C32 28.5302 28.5302 32 24.25 32H8.75C4.46979 32 1 28.5302 1 24.25V8.75C1 4.46979 4.46979 1 8.75 1ZM22.7 15.5235C22.8913 16.8135 22.6709 18.1309 22.0703 19.2885C21.4697 20.446 20.5194 21.3847 19.3545 21.971C18.1897 22.5573 16.8696 22.7614 15.5821 22.5542C14.2945 22.347 13.1051 21.7391 12.183 20.817C11.2609 19.8949 10.653 18.7055 10.4458 17.4179C10.2386 16.1304 10.4427 14.8103 11.029 13.6455C11.6153 12.4806 12.554 11.5303 13.7115 10.9297C14.8691 10.3291 16.1865 10.1087 17.4765 10.3C18.7923 10.4951 20.0105 11.1083 20.9511 12.0489C21.8917 12.9895 22.5049 14.2077 22.7 15.5235Z" stroke="black" stroke-width="2" stroke-linecap="round" stroke-linejoin="round"/>
</svg>