<svg xmlns="http://www.w3.org/2000/svg" width="39" height="33" viewBox="0 0 39 33" fill="none">
  <path d="M6.5 11C6.75245 10.7282 6.33767 10.2252 6.3978 9.85981C6.45794 9.4944 6.40889 9.11944 6.25677 8.78157C6.10465 8.44371 5.85616 8.15783 5.54221 7.95949C5.22825 7.76116 4.86269 7.65896 4.49097 7.6659C4.17316 7.67175 3.86194 7.75721 3.58602 7.91439C3.3101 8.07158 3.07835 8.29542 2.91216 8.5653C2.74597 8.83517 2.65068 9.14237 2.63507 9.45857C2.61947 9.77478 2.68406 10.0898 2.82288 10.3746C2.52828 10.386 2.2404 10.4656 1.9821 10.6072C1.72379 10.7487 1.50219 10.9483 1.33489 11.1901C1.16759 11.4319 1.05919 11.7092 1.01832 12C0.977438 12.2908 1.00521 12.587 1.09941 12.8653C1.19362 13.1435 1.35166 13.3961 1.561 13.6028C1.77034 13.8096 2.0252 13.9649 2.30535 14.0564C2.58549 14.1479 2.88319 14.1731 3.17482 14.1299C3.46644 14.0868 3.74395 13.9765 3.9853 13.8079C4.25818 13.6175 5.29419 13.8079 5.29419 13.8079C6.01899 14.0314 5.05195 14.0399 5.54221 14.3409C5.66708 15.5124 6.94223 16.6548 7.70228 16.8053C8.81999 17.0279 10.0518 15.5969 10.4511 13.6037C10.8519 11.6137 10.2692 9.81877 9.14991 9.5992C9.0682 9.58231 7.8472 10.0277 7.70228 10.1387M6.36565 11.1901C6.61232 10.7325 7.52961 10.298 7.8472 10.0277M20.8901 1.00046C18.5664 0.982682 16.2683 1.48492 14.1656 2.47009C12.0629 3.45527 10.2092 4.89822 8.74137 6.69242C8.59185 6.87187 8.44638 7.05464 8.30507 7.24058L8.31124 7.23597C8.66891 6.93502 8.74137 6.69242 9.41662 6.55269L9.50603 6.51737C9.96699 6.3454 10.4341 6.29166 10.8935 6.38225C13.1137 6.826 14.27 10.3884 13.476 14.3409C12.682 18.2931 10.2385 21.1385 8.01847 20.6961C6.46123 20.386 5.43139 18.5388 5.22481 16.102V16.0944V16.1742C5.22018 16.3769 5.22018 16.5826 5.22481 16.7884V16.9005L5.22789 16.9911C5.2356 17.2199 5.24794 17.4456 5.26489 17.6713C5.2726 17.7742 5.28339 17.877 5.29419 17.9784C5.46628 19.8148 5.96809 21.6054 6.77573 23.2651C6.86823 23.4586 6.82198 23.6889 6.65548 23.8225L6.22844 24.1695C6.01353 24.3452 5.85617 24.5809 5.77652 24.8462C5.69688 25.1116 5.69856 25.3945 5.78135 25.6589C5.78135 25.6681 5.78598 25.6743 5.7906 25.685C5.81499 25.76 5.84541 25.8329 5.88156 25.903L5.95865 25.8432L6.31323 25.576C6.39828 25.5117 6.5055 25.4836 6.61132 25.498C6.71714 25.5124 6.81288 25.5681 6.87748 25.6528C6.94209 25.7375 6.97026 25.8443 6.9558 25.9497C6.94135 26.0551 6.88545 26.1504 6.8004 26.2148L6.42269 26.5003L6.36565 26.5433L8.1802 28.7668C8.41494 29.0518 8.75325 29.2329 9.12142 29.2706C9.4896 29.3082 9.8578 29.1995 10.1458 28.968L10.5436 28.6455C10.6252 28.58 10.727 28.5442 10.8319 28.5442C10.9368 28.5442 11.0385 28.58 11.1202 28.6455C13.9742 30.9065 17.5375 32.0923 21.183 31.9944C24.2675 31.9187 27.2589 30.9269 29.7735 29.1461C29.8603 29.0834 29.9664 29.0529 30.0734 29.0599C30.1803 29.0669 30.2815 29.111 30.3593 29.1845L30.6106 29.424C30.8532 29.6521 31.1695 29.7866 31.5026 29.8032C31.8358 29.8198 32.164 29.7175 32.4282 29.5146L32.4221 29.5085L32.0983 29.206C32.0254 29.1319 31.984 29.0326 31.9828 28.9289C31.9816 28.8251 32.0207 28.7249 32.092 28.6492C32.1632 28.5735 32.2611 28.5281 32.3651 28.5226C32.4691 28.517 32.5713 28.5517 32.6502 28.6194L32.9971 28.9419L34.9396 26.9059C35.1938 26.6375 35.331 26.28 35.3215 25.9112C35.312 25.5424 35.1564 25.1924 34.8887 24.9374L34.4833 24.5535C34.4098 24.4837 34.3617 24.3914 34.3467 24.2913C34.3316 24.1913 34.3504 24.089 34.4 24.0008C36.1365 20.884 36.7373 17.265 36.1005 13.7574C36.5645 13.3305 37.4156 12.4922 37.7487 11.7736C38.1048 11.0028 38.1958 10.2074 37.2507 10.5575C36.5169 10.8293 35.9527 11.0043 35.2682 10.8492C33.0836 5.332 27.7954 1.33979 21.6223 1.02195C21.3795 1.00889 21.1363 1.00172 20.8931 1.00046H20.8901Z" stroke="black" stroke-width="2"/>
</svg>