<svg xmlns="http://www.w3.org/2000/svg" width="33" height="33" viewBox="0 0 33 33" fill="none">
  <path d="M14.8141 18.184C14.5179 17.8883 14.1649 17.6557 13.7764 17.5002L1.48634 12.5717C1.3396 12.5129 1.21438 12.4105 1.12749 12.2784C1.04061 12.1463 0.996206 11.9908 1.00025 11.8327C1.0043 11.6747 1.05661 11.5216 1.15014 11.3941C1.24368 11.2667 1.37397 11.1708 1.52354 11.1196L30.9701 1.04572C31.1075 0.996115 31.2561 0.98665 31.3986 1.01843C31.5411 1.0502 31.6716 1.12191 31.7748 1.22515C31.8781 1.32839 31.9498 1.4589 31.9816 1.60141C32.0134 1.74392 32.0039 1.89253 31.9543 2.02985L21.8804 31.4765C21.8292 31.626 21.7333 31.7563 21.6059 31.8499C21.4784 31.9434 21.3253 31.9957 21.1673 31.9997C21.0092 32.0038 20.8537 31.9594 20.7216 31.8725C20.5895 31.7856 20.4871 31.6604 20.4283 31.5137L15.4998 19.2205C15.3436 18.8322 15.1103 18.4797 14.8141 18.184ZM14.8141 18.184L31.7699 1.23169" stroke="black" stroke-width="2" stroke-linecap="round" stroke-linejoin="round"/>
</svg>