<svg xmlns="http://www.w3.org/2000/svg" width="33" height="23" viewBox="0 0 33 23" fill="none">
  <path d="M1.81016 18.9293C0.729948 14.0308 0.729948 8.96903 1.81016 4.07045C1.95209 3.57299 2.22632 3.11959 2.60589 2.75485C2.98546 2.39011 3.45729 2.12659 3.97498 1.9902C12.2685 0.669932 20.7315 0.669932 29.025 1.9902C29.5427 2.12659 30.0145 2.39011 30.3941 2.75485C30.7737 3.11959 31.0479 3.57299 31.1898 4.07045C32.2701 8.96903 32.2701 14.0308 31.1898 18.9293C31.0479 19.4268 30.7737 19.8802 30.3941 20.2449C30.0145 20.6097 29.5427 20.8732 29.025 21.0096C20.7316 22.3301 12.2684 22.3301 3.97498 21.0096C3.45729 20.8732 2.98546 20.6097 2.60589 20.2449C2.22632 19.8802 1.95209 19.4268 1.81016 18.9293Z" stroke="black" stroke-width="2" stroke-linecap="round" stroke-linejoin="round"/>
  <path d="M13.4074 15.9576L21.1389 11.4999L13.4074 7.04223V15.9576Z" stroke="black" stroke-width="2" stroke-linecap="round" stroke-linejoin="round"/>
</svg>