<svg width="146" height="44" viewBox="0 0 146 44" fill="none" xmlns="http://www.w3.org/2000/svg">
<path d="M18.7731 21.8214C18.4092 18.1168 16.1098 16.2664 11.8022 16.195C8.0122 16.1321 5.56486 17.6264 5.52623 19.9559C5.49374 21.9156 6.95344 23.1048 10.5642 23.9414L15.152 24.9606C18.5048 25.7374 20.1758 26.4494 21.5246 27.6368C22.9831 28.9 23.7665 30.7253 23.7318 32.8144C23.6478 37.88 19.2699 40.9327 12.374 40.8183C5.01588 40.6963 0.655869 37.0919 0.170947 30.6484L4.38614 30.7183C4.74085 34.9775 7.67813 37.3933 12.5589 37.4742C16.6447 37.542 19.56 35.704 19.6048 33.0048C19.6382 30.9897 18.1255 29.6516 15.1603 28.9182L8.82414 27.3892C3.66689 26.1386 1.35482 23.9366 1.41491 20.313C1.49278 15.6172 5.6649 12.709 12.1726 12.8169C18.6802 12.9248 22.1087 15.8296 22.8962 21.8713L18.7734 21.8029L18.7731 21.8214Z" fill="white"/>
<path d="M32.9606 40.5679L28.9303 40.5011L29.3745 13.7124L33.4048 13.7792L32.9606 40.5679Z" fill="white"/>
<path d="M49.8214 40.8475L45.7911 40.7807L46.1801 17.3198L37.343 17.1732L37.3982 13.8455L59.1028 14.2054L59.0476 17.5332L50.2105 17.3866L49.8214 40.8475Z" fill="white"/>
<path d="M81.6111 22.9743C80.8192 19.4291 78.0074 17.2558 74.1065 17.1911C68.6711 17.101 65.0337 21.22 64.9291 27.5243C64.8218 33.995 68.3176 38.4173 73.6236 38.5053C78.0421 38.5785 81.1577 35.8193 81.8635 31.1708L85.9493 31.2386C85.5727 33.8768 84.8974 35.5669 83.4241 37.4288C81.0441 40.4406 77.7463 41.9208 73.4941 41.8503C69.2789 41.7804 65.9581 40.1904 63.6238 37.1004C61.6333 34.4599 60.615 31.1883 60.6757 27.5278C60.8109 19.3747 66.3786 13.7157 74.1619 13.8448C80.1889 13.9447 84.4247 17.2327 85.5736 22.6702L81.6111 22.9743Z" fill="white"/>
<path d="M140.707 42.3546L129.395 25.2647C128.025 23.1522 127.197 21.807 126.533 20.594C126.605 21.7972 126.6 24.3306 126.578 25.6618L126.305 42.1343L122.478 42.0709L122.922 15.2637L127.045 15.332L137.904 31.8228C138.933 33.3747 140.353 35.8023 141.177 37.4249C141.109 35.9443 141.1 34.2983 141.131 32.3941L141.407 15.7366L145.234 15.8001L144.793 42.4224L140.707 42.3546Z" fill="white"/>
<path d="M109.347 3.07372C111.763 1.28298 114.598 2.01424 114.598 2.01424C114.598 2.01424 114.062 5.38952 111.646 7.18025C109.231 8.97099 105.818 8.47057 105.818 8.47057C105.818 8.47057 106.576 7.37357 107.34 5.9253C107.798 5.08223 108.449 3.72456 109.347 3.07372Z" fill="white"/>
<path d="M103.552 5.73305C102.457 4.86422 101.121 5.15644 101.121 5.15644C101.121 5.15644 101.316 6.75006 102.411 7.61889C103.506 8.48772 105.1 8.31072 105.1 8.31072C105.1 8.31072 104.757 7.78724 104.436 7.09767C104.239 6.68757 103.954 6.05409 103.552 5.73305Z" fill="white"/>
<path d="M103.695 13.8168C104.028 13.8223 104.342 13.846 104.675 13.87C104.408 12.1272 104.493 10.3348 105.424 8.7969C103.832 10.028 103.042 11.9382 102.622 13.8544C102.974 13.8233 103.326 13.8106 103.695 13.8168Z" fill="white"/>
<path d="M103.686 14.3899C95.8471 14.2599 89.3822 20.4958 89.2528 28.2976C89.1231 36.1179 95.378 42.5461 103.217 42.6761C111.056 42.8061 117.521 36.5703 117.65 28.7685C117.761 20.9663 111.525 14.5199 103.686 14.3899ZM109.142 34.4156L103.403 30.3445L97.5318 34.2231L101.621 28.5027L97.7237 22.6498L103.463 26.7209L109.334 22.8423L105.245 28.5628L109.142 34.4156Z" fill="white"/>
</svg>
