<svg width="1511" height="348" viewBox="0 0 1512 348" fill="none" xmlns="http://www.w3.org/2000/svg">
<path d="M50.8193 90.5202L0 165.451V348H1512V165.451L1428.48 150.364L1384.7 121.699L1307.21 99.5723L1287.59 190.092L1199.54 90.5202L1121.04 121.699H1037.52L937.893 90.5202L890.596 150.364L850.343 75.4335L814.115 140.306L780.906 121.699L723.043 82.474L717.005 128.74L619.895 140.306L582.661 113.653V205.179L511.212 0L503.161 128.74L444.292 75.4335V180.538L400.013 99.5723L381.396 173.497L335.105 140.306V113.653H268.185L222.9 150.364L182.648 90.5202L170.069 205.179L130.319 150.364V24.6416L85.5374 165.451L50.8193 90.5202Z" fill="#CCB7AD"/>
</svg>
